#!OML:ASF E:\acrobat2\Project_11_07_03\Capture day 1\Session 1\Acrobat.ASF
:FULLY-SPECIFIED
:DEGREES
433
root 11.4987 17.9717 -1.45737 4.71588 5.43162 3.57327
lowerback -4.81466 -2.52257 -6.68362
upperback -1.53003 -3.04264 0.151729
thorax 1.47106 -1.52799 3.71034
lowerneck 1.62435 -2.53108 -1.20651
upperneck 5.53687 -3.78668 8.75896
head 1.69134 -1.78227 2.99397
rclavicle -1.88721e-014 -3.18055e-015
rhumerus -48.0834 -7.58361 -76.4981
rradius 23.7613
rwrist 8.97437
rhand 2.45121 -47.0229
rfingers 7.12502
rthumb 27.936 -74.9646
lclavicle -1.88721e-014 -3.18055e-015
lhumerus -16.7837 -26.3685 82.9156
lradius 32.92
lwrist 14.5887
lhand -15.4519 -11.0777
lfingers 7.12502
lthumb 10.7289 18.6283
rfemur -22.2019 4.72188 9.9977
rtibia 4.8648
rfoot -20.6828 -19.8511
rtoes 2.03431
lfemur 8.62775 0.137315 -23.2302
ltibia 6.4729
lfoot -10.2657 -13.1098
ltoes 32.2676
434
root 11.5036 17.9387 -1.28977 4.97629 5.53839 3.77318
lowerback -4.98528 -2.61758 -6.83712
upperback -1.58161 -3.15061 0.18915
thorax 1.53518 -1.58276 3.82075
lowerneck 1.64205 -2.49709 -1.25514
upperneck 5.3313 -3.72648 8.78457
head 1.61985 -1.75874 3.01196
rclavicle -2.33572e-015 3.27995e-015
rhumerus -48.3669 -7.69606 -76.245
rradius 23.6204
rwrist 9.17188
rhand 2.41444 -46.962
rfingers 7.12502
rthumb 27.9009 -74.9095
lclavicle -2.33572e-015 3.27995e-015
lhumerus -16.7119 -26.3675 82.7636
lradius 33.4373
lwrist 14.7911
lhand -15.6681 -11.3368
lfingers 7.12502
lthumb 10.5204 18.3799
rfemur -22.187 7.38911 8.87827
rtibia 2.42959
rfoot -22.9124 -22.1944
rtoes 3.24635
lfemur 8.87236 0.272433 -23.3414
ltibia 6.60684
lfoot -10.2814 -13.5747
ltoes 32.5624
435
root 11.5087 17.9053 -1.12131 5.22998 5.63773 3.97639
lowerback -5.15324 -2.70849 -6.97209
upperback -1.62564 -3.25329 0.21529
thorax 1.60397 -1.63522 3.90893
lowerneck 1.67889 -2.45529 -1.32013
upperneck 5.10664 -3.65554 8.84082
head 1.53952 -1.73068 3.04382
rclavicle 1.16786e-015 6.16232e-015
rhumerus -48.6386 -7.81568 -76.0073
rradius 23.5153
rwrist 9.32302
rhand 2.41355 -46.9322
rfingers 7.12502
rthumb 27.9 -74.8798
lclavicle 1.16786e-015 6.16232e-015
lhumerus -16.6544 -26.301 82.6252
lradius 33.9114
lwrist 14.9414
lhand -15.8589 -11.5868
lfingers 7.12502
lthumb 10.3363 18.1392
rfemur -22.2524 10.4102 7.57
rtibia 0.227127
rfoot -25.7128 -24.715
rtoes 4.49999
lfemur 9.11376 0.383357 -23.4625
ltibia 6.79026
lfoot -10.249 -14.0948
ltoes 33.236
436
root 11.5142 17.8719 -0.952662 5.46858 5.73678 4.18756
lowerback -5.29588 -2.78556 -7.08951
upperback -1.66854 -3.33974 0.223171
thorax 1.65626 -1.67904 3.97034
lowerneck 1.72238 -2.42216 -1.34904
upperneck 4.88305 -3.59549 8.88602
head 1.45791 -1.70761 3.06517
rclavicle -2.0012e-014 -1.13307e-014
rhumerus -48.9343 -7.96165 -75.7768
rradius 23.4682
rwrist 9.41772
rhand 2.48891 -46.9682
rfingers 7.12502
rthumb 27.9721 -74.9041
lclavicle -2.0012e-014 -1.13307e-014
lhumerus -16.612 -26.2411 82.5141
lradius 34.3364
lwrist 15.0769
lhand -16.0461 -11.7976
lfingers 7.12502
lthumb 10.1557 17.9373
rfemur -22.1916 10.413 7.44355
rtibia -1.39418
rfoot -26.7776 -24.3918
rtoes 5.60393
lfemur 9.35765 0.474935 -23.5955
ltibia 7.02834
lfoot -10.1393 -14.6797
ltoes 34.2356
437
root 11.5195 17.8385 -0.784551 5.68523 5.82819 4.39729
lowerback -5.38765 -2.84353 -7.18644
upperback -1.71847 -3.40585 0.219751
thorax 1.66881 -1.71119 4.01256
lowerneck 1.77637 -2.40703 -1.31915
upperneck 4.65932 -3.55727 8.8895
head 1.37335 -1.69515 3.06117
rclavicle -1.09689e-014 1.15295e-014
rhumerus -49.2732 -8.11065 -75.5542
rradius 23.4881
rwrist 9.45004
rhand 2.63146 -47.0748
rfingers 7.12502
rthumb 28.1083 -74.9884
lclavicle -1.09689e-014 1.15295e-014
lhumerus -16.6079 -26.1793 82.4459
lradius 34.7244
lwrist 15.1804
lhand -16.2359 -11.9647
lfingers 7.12502
lthumb 9.97262 17.7791
rfemur -22.2888 10.3805 7.26565
rtibia -2.49639
rfoot -27.7742 -24.0297
rtoes 6.26962
lfemur 9.60273 0.539976 -23.7275
ltibia 7.3245
lfoot -9.96347 -15.3106
ltoes 35.4416
438
root 11.5243 17.8047 -0.61722 5.87149 5.9107 4.59338
lowerback -5.41602 -2.8841 -7.25904
upperback -1.77131 -3.45543 0.214334
thorax 1.63957 -1.73359 4.04351
lowerneck 1.82237 -2.41348 -1.29193
upperneck 4.44416 -3.54876 8.89339
head 1.29497 -1.69716 3.05758
rclavicle 4.28629e-016 -1.19271e-014
rhumerus -49.6262 -8.24206 -75.3441
rradius 23.5368
rwrist 9.42318
rhand 2.8016 -47.2119
rfingers 7.12502
rthumb 28.271 -75.0987
lclavicle 4.28629e-016 -1.19271e-014
lhumerus -16.6487 -26.0821 82.4229
lradius 35.0849
lwrist 15.2306
lhand -16.402 -12.1003
lfingers 7.12502
lthumb 9.81232 17.6511
rfemur -22.7933 10.3021 7.05147
rtibia -2.74401
rfoot -28.379 -23.9736
rtoes 5.16925
lfemur 9.85494 0.573292 -23.8421
ltibia 7.67026
lfoot -9.74617 -15.9489
ltoes 36.7066
